<?xml version="1.0" encoding="UTF-8" standalone="no"?>
<svg width="341px" height="129px" viewBox="0 0 341 129" version="1.1" xmlns="http://www.w3.org/2000/svg" xmlns:xlink="http://www.w3.org/1999/xlink" xmlns:sketch="http://www.bohemiancoding.com/sketch/ns">
    <!-- Generator: Sketch 3.4.2 (15855) - http://www.bohemiancoding.com/sketch -->
    <title>it</title>
    <desc>Created with Sketch.</desc>
    <defs></defs>
    <g id="Page-1" stroke="none" stroke-width="1" fill="none" fill-rule="evenodd" sketch:type="MSPage">
        <g id="it" sketch:type="MSLayerGroup" fill="#FFFFFF">
            <path d="M172.04,0.92 C176.87,9.17 182,17.38 188.92,24.08 C199.83,35.61 212.99,44.88 227.06,52.16 C223.65,54.39 219.48,54.62 215.77,56.11 C206.51,59.66 198.06,66.62 194.62,76.14 C194.07,80.02 194.12,83.99 194.59,87.87 C197.95,96.4 206.19,101.8 214.49,104.84 C224.89,108.54 235.91,110.97 247,110.52 C254.75,110.7 263.21,108.5 268.56,102.56 C274.35,97.11 275.98,88.65 275.56,81.01 C275.85,73.22 273.34,65.75 271.23,58.36 C276.17,58.23 281.11,58.42 286.05,58.29 C303.2,56.46 319.79,51.08 335.56,44.21 C337.03,43.63 338.56,43.28 340.16,43.15 C338.57,46.97 336.16,50.35 334.07,53.9 C319.39,78.09 304.84,104.35 290.12,128.51 C269.72,128.76 249.32,128.66 228.92,128.67 C226.17,128.64 223.52,128.53 220.78,128.5 C204.52,128.5 188.25,128.5 171.99,128.49 C168.96,128.42 166.03,128.39 163.01,128.33 C127,128.25 90.99,128.54 54.99,128.45 C37.22,98.81 18.3,69.84 0.53,40.19 C14.33,49.54 30.53,54.84 46.99,56.93 C57.21,58.94 67.65,58.38 78.01,58.6 C73.65,65.93 67.78,73.05 67.46,81.98 C66.94,87.77 69.29,93.61 73.43,97.64 C80.3,105.07 90.41,108.09 100,110.2 C105.93,110.81 111.95,110.68 117.9,110.4 C128.46,108.64 139.04,104.39 146.45,96.44 C150.36,91.73 153.53,85.55 152.37,79.27 C149.48,69.57 140.23,63.91 131.69,59.69 C126.85,57.02 121.41,55.72 116.56,53.1 C120.28,50.3 125.02,49.34 128.87,46.72 C146.96,35.52 160.57,18.56 172.04,0.92 Z" id="Shape" sketch:type="MSShapeGroup"></path>
        </g>
    </g>
</svg>